<?xml version="1.0" encoding="UTF-8" standalone="no"?>
<svg
   xmlns:dc="http://purl.org/dc/elements/1.1/"
   xmlns:cc="http://creativecommons.org/ns#"
   xmlns:rdf="http://www.w3.org/1999/02/22-rdf-syntax-ns#"
   xmlns:svg="http://www.w3.org/2000/svg"
   xmlns="http://www.w3.org/2000/svg"
   xmlns:sodipodi="http://sodipodi.sourceforge.net/DTD/sodipodi-0.dtd"
   xmlns:inkscape="http://www.inkscape.org/namespaces/inkscape"
   version="1.1"
   id="Layer_1"
   x="0px"
   y="0px"
   width="575"
   height="332"
   viewBox="0 0 574.99998 331.99999"
   enable-background="new 0 0 1190.55 841.89"
   xml:space="preserve">
<path
   style="fill:#f58220"
   inkscape:connector-curvature="0"
   id="path5"
   d="M 555.74416,106.23775 408.687,175.76451 h 166.31054 c -1.30392,-25.03292 -8.12111,-48.60138 -19.25338,-69.52676"
   clip-path="none" /><path
   style="fill:#ed1c24"
   inkscape:connector-curvature="0"
   id="path7"
   d="M 333.63523,16.901589 C 270.21693,46.895673 233.07674,109.97331 233.04149,175.75668 h 20.99195 c -0.1997,-36.68206 12.45185,-73.55599 38.7652,-103.111517 C 349.28619,9.1602966 446.54377,3.5256379 510.00122,60.028853 L 406.96802,175.75668 h 1.71507 L 567.55384,100.63834 C 526.11423,12.915431 421.34247,-24.577174 333.63523,16.901589"
   clip-path="none" /><path
   style="fill:#f58220"
   inkscape:connector-curvature="0"
   id="path9"
   d="M 302.72096,138.07612 C 320.26319,78.941571 382.43239,45.223679 441.53953,62.781573 L 408.53821,174.00245 510.00122,60.028853 C 446.54377,3.5256379 349.28619,9.168128 292.79864,72.649079 266.48529,102.20852 253.82982,139.07853 254.03735,175.76842 h 44.31763 c -0.65392,-12.40094 0.63043,-25.11123 4.36598,-37.6923"
   clip-path="none" /><path
   style="fill:#fff200"
   inkscape:connector-curvature="0"
   id="path11"
   d="m 408.74966,96.088319 c -44.00046,0 -79.68011,35.405551 -79.89939,79.840651 h 159.32106 c 0.21144,-44.4351 -35.43688,-79.840651 -79.42167,-79.840651"
   clip-path="none" /><path
   style="fill:#fdb913"
   inkscape:connector-curvature="0"
   id="path13"
   d="m 408.74966,96.088319 c 7.63165,0 15.00487,1.088558 21.99435,3.081638 L 441.53953,62.781573 C 382.43239,45.227595 320.26319,78.945487 302.72096,138.07612 c -3.73164,12.58107 -5.0199,25.29136 -4.36206,37.68447 h 30.4992 c 0.29368,-44.34895 35.942,-79.672271 79.89156,-79.672271"
   clip-path="none" /><path
   inkscape:connector-curvature="0"
   id="path15"
   d="m 482.17642,196.75645 c -18.55639,0 -33.24409,2.78013 -43.67545,6.95816 v 88.64309 h 30.15071 v -76.79817 c 3.47712,-1.04548 6.76629,-1.91476 12.76119,-1.91476 12.16209,0 15.45126,6.44911 15.45126,13.06269 v 65.65415 h 30.15462 v -65.83035 c 0,-17.06452 -11.7901,-29.77481 -44.84233,-29.77481 m -199.7974,6.95816 v 88.64309 h 30.15463 v -76.62196 c 5.01989,-2.09097 12.75727,-2.25935 20.107,0.52078 l 5.60725,-19.15157 c -28.04016,-1.22561 -44.27456,1.55844 -55.86888,6.60966 m -156.12194,-6.95816 c -18.36061,0 -31.893191,4.35423 -39.239001,7.13828 l 6.582253,15.49433 c 6.758458,-2.78013 17.001868,-5.74821 27.057328,-5.74821 11.0148,0 18.35669,2.78796 18.35669,12.53408 v 4.35815 c -31.30975,2.61176 -58.175209,9.75003 -58.175209,33.95675 0,19.50398 15.459092,29.5986 45.609799,29.5986 17.97688,0 32.08506,-2.78405 40.78178,-6.95816 V 231.0617 c 0,-25.43232 -17.38561,-34.30525 -40.97364,-34.30525 m 12.75727,80.4515 c -2.70182,1.21385 -6.57051,1.91085 -11.0148,1.91085 -11.98197,0 -18.94013,-4.69882 -18.94013,-15.67054 0,-14.97747 11.79011,-18.81091 29.95493,-20.36935 v 34.12904 z m 244.06413,-80.4515 c -18.36061,0 -31.8971,4.35423 -39.239,7.13828 l 6.57442,15.49433 c 6.76629,-2.78013 17.01362,-5.74821 27.06125,-5.74821 11.01479,0 18.3606,2.78796 18.3606,12.53408 v 4.35815 c -31.31366,2.61176 -58.17521,9.75003 -58.17521,33.95675 0,19.50398 15.45518,29.5986 45.61372,29.5986 17.97296,0 32.08506,-2.78405 40.78178,-6.95816 V 231.0617 c 0,-25.43232 -17.39736,-34.30525 -40.97756,-34.30525 m 12.75727,80.4515 c -2.70181,1.21385 -6.57442,1.91085 -11.0148,1.91085 -11.9898,0 -18.94795,-4.69882 -18.94795,-15.67054 0,-14.97747 11.7901,-18.81091 29.95884,-20.36935 v 34.12904 z M 177.01599,247.7738 c 0,28.03625 17.97687,45.27697 42.9119,45.27697 8.70455,0 14.69554,-1.21386 18.17266,-2.96025 v 5.22743 c 0,10.79552 -5.7952,17.58139 -21.64586,17.58139 -9.86359,0 -19.33561,-2.43164 -25.7025,-5.56418 l -7.73738,17.58531 c 8.31298,4.17802 22.80882,6.96598 38.85134,6.96598 26.67359,0 45.61764,-12.19733 45.61764,-38.83959 v -89.33225 c -7.3419,-4.00182 -20.87448,-6.95816 -36.92483,-6.95816 -35.75405,0 -53.54297,19.67236 -53.54297,51.01735 m 61.08456,27.50763 c -2.50995,1.40181 -5.99099,2.26326 -10.04763,2.26326 -15.08318,0 -21.26212,-10.09853 -21.26212,-31.34107 0,-22.46032 6.37864,-33.78446 21.84164,-33.78446 4.05664,0 7.15003,0.5247 9.46811,1.56627 v 61.296 z M 39.763693,295.43542 c 0,10.79552 -5.795202,17.58139 -21.641945,17.58139 -4.19369,0 -8.2973194,-0.45422 -12.1425139,-1.20603 L -4.2164997e-6,329.84639 C 6.9542376,331.20904 15.016616,332.00001 23.529297,332.00001 c 26.677505,0 46.804084,-12.52233 46.804084,-40.01822 V 176.09343 H 39.763693 v 119.34199 z"
   clip-path="none" />
</svg>