<?xml version="1.0" encoding="iso-8859-1"?>
<!-- Generator: Adobe Illustrator 19.0.0, SVG Export Plug-In . SVG Version: 6.00 Build 0)  -->
<svg version="1.1" id="Layer_1" xmlns="http://www.w3.org/2000/svg" xmlns:xlink="http://www.w3.org/1999/xlink" x="0px" y="0px"
	 viewBox="0 0 510.946 510.946" style="enable-background:new 0 0 510.946 510.946;" xml:space="preserve">
<g>
	<path style="fill:#FF4F19;" d="M112.246,483.246c-0.121,0-0.238,0-0.359,0l-48.289-0.305C28.531,482.723,0,454.02,0,418.949
		v-47.734c0-14.953,5.824-29.016,16.395-39.594L303.918,44.105c10.566-10.578,24.629-16.406,39.598-16.406h103.43
		c35.289,0,64,28.711,64,64v103.43c0,14.953-5.824,29.016-16.395,39.594L346.854,382.416c-6.242,6.25-16.375,6.25-22.625,0
		s-6.25-16.375,0-22.625l147.689-147.685c4.527-4.539,7.027-10.57,7.027-16.977V91.699c0-17.648-14.355-32-32-32h-103.43
		c-6.414,0-12.438,2.492-16.965,7.023L39.027,354.238C34.5,358.777,32,364.809,32,371.215v47.734
		c0,17.531,14.266,31.883,31.797,31.992l48.297,0.305c6.324,0.328,12.613-2.523,17.121-7.023l217.281-217.281l-30.082-30.086
		L127.312,385.957c-6.242,6.25-16.375,6.25-22.625,0s-6.25-16.375,0-22.625L293.785,174.23c12.477-12.477,32.777-12.492,45.254,0
		l30.086,30.086c6.043,6.047,9.371,14.078,9.371,22.625s-3.328,16.578-9.375,22.625L151.84,466.848
		C141.406,477.285,126.992,483.246,112.246,483.246z"/>
</g>
<g>
</g>
<g>
</g>
<g>
</g>
<g>
</g>
<g>
</g>
<g>
</g>
<g>
</g>
<g>
</g>
<g>
</g>
<g>
</g>
<g>
</g>
<g>
</g>
<g>
</g>
<g>
</g>
<g>
</g>
</svg>
